SplineFontDB: 3.2
FontName: Untitled1
FullName: Untitled1
FamilyName: Untitled1
Weight: Regular
Copyright: Copyright (c) 2020, Eric Scholz
UComments: "2020-12-2: Created with FontForge (http://fontforge.org)"
Version: 001.000
ItalicAngle: 0
UnderlinePosition: -100
UnderlineWidth: 50
Ascent: 750
Descent: 250
InvalidEm: 0
LayerCount: 2
Layer: 0 0 "Back" 1
Layer: 1 0 "Fore" 0
XUID: [1021 981 1692638275 468]
StyleMap: 0x0000
FSType: 0
OS2Version: 0
OS2_WeightWidthSlopeOnly: 0
OS2_UseTypoMetrics: 1
CreationTime: 1606962887
ModificationTime: 1608459807
OS2TypoAscent: 0
OS2TypoAOffset: 1
OS2TypoDescent: 0
OS2TypoDOffset: 1
OS2TypoLinegap: 90
OS2WinAscent: 0
OS2WinAOffset: 1
OS2WinDescent: 0
OS2WinDOffset: 1
HheadAscent: 0
HheadAOffset: 1
HheadDescent: 0
HheadDOffset: 1
OS2Vendor: 'PfEd'
MarkAttachClasses: 1
DEI: 91125
Encoding: ISO8859-1
UnicodeInterp: none
NameList: AGL For New Fonts
DisplaySize: -72
AntiAlias: 1
FitToEm: 0
WinInfo: 0 15 13
BeginPrivate: 0
EndPrivate
Grid
700 -250 m 25
 700 750 l 1049
350 500 m 25
 700 125 l 25
 350 -250 l 25
 0 125 l 1049
0 125 m 25
 350 500 l 25
 350 -250 l 1049
0 125 m 17
 700 125 l 1
 700 125 l 1033
1000 750 m 25
 1000 -252 l 1049
0 500 m 25
 700 -250 l 1049
700 500 m 1
 0 -250 l 1025
0 500 m 1
 1000 500 l 1025
  Named: "x-height"
EndSplineSet
AnchorClass2: "MiddleBottom""" 
BeginChars: 256 33

StartChar: A
Encoding: 65 65 0
Width: 700
VWidth: 998
Flags: HW
LayerCount: 2
Fore
SplineSet
353.842773438 547.734375 m 1
 355.778320312 -227.612304688 l 1
 318.971679688 -248.862304688 l 1
 297.721679688 -212.056640625 l 1
 296.483398438 284.196289062 l 1
 58.2783203125 -227.612304688 l 1
 21.4716796875 -248.862304688 l 1
 0.2216796875 -212.056640625 l 1
 353.842773438 547.734375 l 1
EndSplineSet
EndChar

StartChar: B
Encoding: 66 66 1
Width: 1000
VWidth: 998
Flags: HW
LayerCount: 2
Back
SplineSet
555 1209 m 1053
EndSplineSet
Fore
SplineSet
-453 -1014 m 1049
92.3349609375 180.711914062 m 1
 334.528320312 179.328125 l 1
 355.778320312 142.521484375 l 1
 58.2783203125 -174.528320312 l 1
 21.4716796875 -195.778320312 l 1
 0.2216796875 -158.971679688 l 1
 263.483398438 121.588867188 l 1
 21.4716796875 122.971679688 l 1
 0.2216796875 159.778320312 l 1
 263.369140625 441.721679688 l 1
 21.4716796875 441.721679688 l 1
 0.2216796875 478.528320312 l 1
 37.0283203125 499.778320312 l 1
 334.528320312 499.778320312 l 1
 355.778320312 462.971679688 l 1
 92.3349609375 180.711914062 l 1
EndSplineSet
EndChar

StartChar: C
Encoding: 67 67 2
Width: 1000
Flags: H
LayerCount: 2
Fore
SplineSet
294.721679688 478.528320312 m 1
 331.528320312 499.778320312 l 1
 352.778320312 462.971679688 l 1
 61.8291015625 151.241210938 l 1
 331.528320312 -137.721679688 l 1
 352.778320312 -174.528320312 l 1
 315.971679688 -195.778320312 l 1
 18.4716796875 122.971679688 l 1
 -2.7783203125 159.778320312 l 1
 294.721679688 478.528320312 l 1
EndSplineSet
EndChar

StartChar: D
Encoding: 68 68 3
Width: 1000
Flags: HW
LayerCount: 2
Fore
SplineSet
57.279296875 441.646484375 m 5
 57.279296875 109.296875 l 5
 20.4736328125 88.046875 l 5
 -0.7763671875 124.853515625 l 5
 -0.7763671875 499.703125 l 5
 354.79296875 499.703125 l 5
 354.719726562 302.247070312 l 6
 354.76171875 40.0576171875 249.517578125 -90.568359375 156.404296875 -144.328125 c 6
 119.59765625 -165.578125 l 6
 82.0029296875 -187.283203125 46.384765625 -196.458984375 20.4736328125 -196.703125 c 5
 -0.7763671875 -159.896484375 l 5
 36.029296875 -138.646484375 l 5
 57.6220703125 -138.443359375 85.955078125 -132.038085938 116.555664062 -117.34765625 c 5
 204.649414062 -57.5458984375 296.703125 72.58984375 296.663085938 317.802734375 c 6
 296.709960938 441.646484375 l 5
 57.279296875 441.646484375 l 5
EndSplineSet
EndChar

StartChar: E
Encoding: 69 69 4
Width: 1000
Flags: HW
LayerCount: 2
Fore
SplineSet
333.528320312 294.927734375 m 1
 354.778320312 258.122070312 l 1
 317.971679688 236.872070312 l 1
 57.2783203125 236.126953125 l 1
 57.2783203125 -137.721679688 l 1
 333.528320312 -137.721679688 l 1
 354.778320312 -174.528320312 l 1
 317.971679688 -195.778320312 l 1
 20.4716796875 -195.778320312 l 1
 -0.7783203125 -158.971679688 l 1
 -0.7783203125 272.828125 l 1
 -0.7783203125 478.528320312 l 1
 36.0283203125 499.778320312 l 1
 333.528320312 499.778320312 l 1
 354.778320312 462.971679688 l 1
 317.971679688 441.721679688 l 1
 57.2783203125 441.721679688 l 1
 57.2783203125 294.138671875 l 1
 333.528320312 294.927734375 l 1
EndSplineSet
EndChar

StartChar: F
Encoding: 70 70 5
Width: 1000
Flags: H
LayerCount: 2
Fore
SplineSet
-0.7783203125 478.528320312 m 1
 36.0283203125 499.778320312 l 1
 333.528320312 499.778320312 l 1
 354.778320312 462.971679688 l 1
 317.971679688 441.721679688 l 1
 57.2783203125 441.721679688 l 1
 57.2783203125 285.401367188 l 1
 240.028320312 283.877929688 l 1
 261.278320312 247.072265625 l 1
 224.471679688 225.822265625 l 1
 57.2783203125 227.21484375 l 1
 57.2783203125 -174.528320312 l 1
 20.4716796875 -195.778320312 l 1
 -0.7783203125 -158.971679688 l 1
 -0.7783203125 264.328125 l 1
 -0.7783203125 478.528320312 l 1
EndSplineSet
EndChar

StartChar: G
Encoding: 71 71 6
Width: 1000
Flags: H
LayerCount: 2
Fore
SplineSet
296.721679688 -137.721679688 m 1
 296.721679688 17.572265625 l 1
 173.471679688 17.572265625 l 1
 152.221679688 54.3779296875 l 1
 189.028320312 75.6279296875 l 1
 333.528320312 75.6279296875 l 1
 354.778320312 38.822265625 l 1
 354.778320312 -174.528320312 l 1
 317.971679688 -195.778320312 l 1
 20.4716796875 -195.778320312 l 1
 -0.7783203125 -158.971679688 l 1
 -0.7783203125 478.528320312 l 1
 36.0283203125 499.778320312 l 1
 333.528320312 499.778320312 l 1
 354.778320312 462.971679688 l 1
 317.971679688 441.721679688 l 1
 57.2783203125 441.721679688 l 1
 57.2783203125 -137.721679688 l 1
 296.721679688 -137.721679688 l 1
EndSplineSet
EndChar

StartChar: H
Encoding: 72 72 7
Width: 1000
Flags: H
LayerCount: 2
Fore
SplineSet
-0.77734375 478.528320312 m 1
 36.0283203125 499.778320312 l 1
 57.2783203125 462.971679688 l 1
 57.2783203125 368.970703125 57.2783203125 274.96875 57.2783203125 180.967773438 c 1
 296.721679688 180.283203125 l 1
 296.721679688 478.528320312 l 1
 333.528320312 499.778320312 l 1
 354.778320312 462.971679688 l 1
 354.778320312 143.372070312 l 1
 354.778320312 -174.528320312 l 1
 317.971679688 -195.778320312 l 1
 296.721679688 -158.971679688 l 1
 296.721679688 122.182617188 l 1
 57.2783203125 122.8671875 l 1
 57.2783203125 -174.528320312 l 1
 20.4716796875 -195.778320312 l 1
 -0.7783203125 -158.971679688 l 1
 -0.7783203125 159.778320312 l 1
 -0.77734375 159.778320312 l 1
 -0.77734375 478.528320312 l 1
EndSplineSet
EndChar

StartChar: I
Encoding: 73 73 8
Width: 1000
Flags: H
LayerCount: 2
Fore
SplineSet
204.2421875 499.590820312 m 1
 207.953125 -198.084960938 l 1
 21.4326171875 -195.96484375 l 1
 0.1826171875 -159.159179688 l 1
 36.98828125 -137.909179688 l 1
 149.666992188 -139.189453125 l 1
 146.578125 441.53515625 l 1
 21.4326171875 441.53515625 l 1
 0.1826171875 478.340820312 l 1
 36.98828125 499.590820312 l 1
 204.2421875 499.590820312 l 1
EndSplineSet
EndChar

StartChar: J
Encoding: 74 74 9
Width: 1000
Flags: HW
LayerCount: 2
Fore
SplineSet
57.279296875 441.646484375 m 1
 57.279296875 442.296875 l 1
 20.4736328125 421.046875 l 1
 -0.7763671875 457.853515625 l 1
 -0.7763671875 499.703125 l 1
 354.79296875 499.703125 l 1
 354.719726562 302.247070312 l 2
 354.76171875 40.0576171875 249.517578125 -90.568359375 156.404296875 -144.328125 c 2
 119.59765625 -165.578125 l 2
 82.0029296875 -187.283203125 46.384765625 -196.458984375 20.4736328125 -196.703125 c 1
 -0.7763671875 -159.896484375 l 1
 36.029296875 -138.646484375 l 1
 57.6220703125 -138.443359375 85.955078125 -132.038085938 116.555664062 -117.34765625 c 1
 204.649414062 -57.5458984375 296.703125 72.58984375 296.663085938 317.802734375 c 2
 296.709960938 441.646484375 l 1
 57.279296875 441.646484375 l 1
EndSplineSet
EndChar

StartChar: K
Encoding: 75 75 10
Width: 1000
Flags: H
LayerCount: 2
Fore
SplineSet
296.721679688 499.528320312 m 1
 333.528320312 520.778320312 l 1
 354.778320312 483.971679688 l 1
 63.8291015625 172.241210938 l 1
 333.528320312 -116.721679688 l 1
 354.778320312 -153.528320312 l 1
 317.971679688 -174.778320312 l 1
 57.2783203125 104.537109375 l 1
 57.2783203125 -153.528320312 l 1
 -0.7783203125 -137.971679688 l 1
 -0.7783203125 180.778320312 l 1
 -0.7783203125 499.528320312 l 1
 57.2783203125 483.971679688 l 1
 57.2783203125 242.981445312 l 1
 296.721679688 499.528320312 l 1
EndSplineSet
EndChar

StartChar: L
Encoding: 76 76 11
Width: 1000
Flags: H
LayerCount: 2
Fore
SplineSet
-0.7783203125 -195.778320312 m 1
 -0.7783203125 478.528320312 l 1
 36.0283203125 499.778320312 l 1
 57.2783203125 462.971679688 l 1
 57.2783203125 -137.721679688 l 1
 333.528320312 -137.721679688 l 1
 354.778320312 -174.528320312 l 1
 317.971679688 -195.778320312 l 1
 -0.7783203125 -195.778320312 l 1
EndSplineSet
EndChar

StartChar: M
Encoding: 77 77 12
Width: 1000
Flags: H
LayerCount: 2
Fore
SplineSet
174.901367188 106.69140625 m 1
 296.721679688 499.653320312 l 1
 354.778320312 484.096679688 l 1
 354.778320312 -153.403320312 l 1
 317.971679688 -174.653320312 l 1
 296.721679688 -137.846679688 l 1
 296.721679688 296.823242188 l 1
 206.424804688 5.546875 l 1
 148.368164062 21.103515625 l 1
 57.2783203125 313.375 l 1
 57.2783203125 -153.403320312 l 1
 20.4716796875 -174.653320312 l 1
 -0.7783203125 -137.846679688 l 1
 -0.7783203125 499.653320312 l 1
 57.2783203125 484.096679688 l 1
 174.901367188 106.69140625 l 1
EndSplineSet
EndChar

StartChar: N
Encoding: 78 78 13
Width: 1000
Flags: H
LayerCount: 2
Fore
SplineSet
354.778320312 -250.377929688 m 1
 57.2783203125 387.122070312 l 1
 57.2783203125 -141.528320312 l 1
 20.4716796875 -162.778320312 l 1
 -0.7783203125 -125.971679688 l 1
 -0.7783203125 620.377929688 l 1
 296.721679688 -17.1220703125 l 1
 296.721679688 511.528320312 l 1
 333.528320312 532.778320312 l 1
 354.778320312 495.971679688 l 1
 354.778320312 -250.377929688 l 1
EndSplineSet
EndChar

StartChar: O
Encoding: 79 79 14
Width: 1000
Flags: HW
LayerCount: 2
Fore
SplineSet
-0.7783203125 274.377929688 m 2
 -0.7783203125 349.569335938 -0.7744140625 423.8515625 59.0078125 458.366210938 c 2
 95.8134765625 479.616210938 l 2
 117.8046875 492.3125 147.883789062 499.627929688 189.028320312 499.627929688 c 0
 255.158203125 499.627929688 291.024414062 477.73046875 310.475585938 444.0390625 c 2
 331.725585938 407.233398438 l 2
 354.778320312 367.305664062 354.778320312 310.813476562 354.778320312 254.572265625 c 2
 354.778320312 37.822265625 l 2
 354.778320312 -41.2099609375 354.778320312 -121.197265625 292.784179688 -156.989257812 c 2
 255.978515625 -178.239257812 l 2
 235.294921875 -190.180664062 207.709960938 -197.203125 170.921875 -197.627929688 c 0
 102.563476562 -196.85546875 65.2646484375 -172.745117188 44.912109375 -137.494140625 c 2
 23.662109375 -100.688476562 l 2
 -0.7783203125 -58.35546875 -0.7783203125 -49.9580078125 -0.7783203125 3.3779296875 c 1
 36.0283203125 24.6279296875 l 1
 65.650390625 -13.75 l 1
 65.650390625 -59.1494140625 62.25 -39.400390625 80.9501953125 -83.599609375 c 1
 116.650390625 -126.099609375 121.802734375 -130.668945312 186.478515625 -139.572265625 c 0
 245.295898438 -147.668945312 278.150390625 -90.400390625 278.150390625 -90.400390625 c 1
 305.349609375 -49.599609375 296.721679688 -16.4501953125 296.721679688 53.3779296875 c 2
 296.721679688 270.127929688 l 2
 296.721679688 317.505859375 296.721679688 365.061523438 282.94140625 402.743164062 c 1
 261.791015625 426.75390625 227.87109375 441.572265625 173.471679688 441.572265625 c 0
 143.610351562 441.572265625 119.577148438 437.71875 100.234375 430.750976562 c 1
 57.28125 392.783203125 57.2783203125 326.166992188 57.2783203125 258.822265625 c 2
 57.2783203125 254.072265625 l 1
 20.4716796875 232.822265625 l 1
 -0.7783203125 269.627929688 l 1
 -0.7783203125 274.377929688 l 2
EndSplineSet
EndChar

StartChar: P
Encoding: 80 80 15
Width: 1000
Flags: H
LayerCount: 2
Fore
SplineSet
57.2783203125 144.221679688 m 1
 57.2783203125 -174.528320312 l 1
 20.4716796875 -195.778320312 l 1
 -0.7783203125 -158.971679688 l 1
 -0.7783203125 159.778320312 l 1
 262.369140625 441.721679688 l 1
 20.4716796875 441.721679688 l 1
 -0.7783203125 478.528320312 l 1
 36.0283203125 499.778320312 l 1
 333.528320312 499.778320312 l 1
 354.778320312 462.971679688 l 1
 57.2783203125 144.221679688 l 1
EndSplineSet
EndChar

StartChar: Q
Encoding: 81 81 16
Width: 1000
Flags: H
LayerCount: 2
Fore
SplineSet
36.0283203125 499.778320312 m 1
 333.528320312 499.778320312 l 1
 354.778320312 462.971679688 l 1
 354.778320312 140.822265625 l 1
 212.438476562 -10.0576171875 l 1
 333.528320312 -137.721679688 l 1
 354.778320312 -174.528320312 l 1
 317.971679688 -195.778320312 l 1
 177.22265625 -47.38671875 l 1
 57.2783203125 -174.528320312 l 1
 -0.7783203125 -158.971679688 l 1
 -0.7783203125 478.528320312 l 1
 36.0283203125 499.778320312 l 1
296.721679688 441.721679688 m 1
 57.2783203125 441.721679688 l 1
 57.2783203125 -97.4326171875 l 1
 147.571289062 -1.7216796875 l 1
 296.721679688 156.377929688 l 1
 296.721679688 441.721679688 l 1
EndSplineSet
EndChar

StartChar: R
Encoding: 82 82 17
Width: 1000
Flags: H
LayerCount: 2
Fore
SplineSet
1.0439453125 500.150390625 m 1
 406.150390625 500.150390625 l 1
 406.150390625 154.388671875 l 1
 679.150390625 -137.849609375 l 1
 704.150390625 -181.150390625 l 1
 660.849609375 -206.150390625 l 1
 406.150390625 66.4970703125 l 1
 406.150390625 -181.150390625 l 1
 362.849609375 -206.150390625 l 1
 337.849609375 -162.849609375 l 1
 337.849609375 139.611328125 l 1
 1.0439453125 500.150390625 l 1
337.849609375 431.849609375 m 1
 146.956054688 431.849609375 l 1
 337.849609375 227.502929688 l 1
 337.849609375 431.849609375 l 1
EndSplineSet
Validated: 524289
EndChar

StartChar: S
Encoding: 83 83 18
Width: 1000
Flags: HO
LayerCount: 2
Fore
SplineSet
296.721679688 -137.721679688 m 1
 296.721679688 122.971679688 l 1
 20.4716796875 122.971679688 l 1
 -0.7783203125 159.778320312 l 1
 -0.7783203125 478.528320312 l 1
 36.0283203125 499.778320312 l 1
 333.528320312 499.778320312 l 1
 354.778320312 462.971679688 l 1
 317.971679688 441.721679688 l 1
 57.2783203125 441.721679688 l 1
 57.2783203125 181.028320312 l 1
 333.528320312 181.028320312 l 1
 354.778320312 144.221679688 l 1
 354.778320312 -174.528320312 l 1
 317.971679688 -195.778320312 l 1
 20.4716796875 -195.778320312 l 1
 -0.7783203125 -158.971679688 l 1
 36.0283203125 -137.721679688 l 1
 296.721679688 -137.721679688 l 1
EndSplineSet
EndChar

StartChar: T
Encoding: 84 84 19
Width: 1000
Flags: H
LayerCount: 2
Fore
SplineSet
170.8 -58 m 25
 180.133333333 307 l 25
 520.8 -67 l 1053
EndSplineSet
Validated: 524291
EndChar

StartChar: U
Encoding: 85 85 20
Width: 1000
Flags: H
LayerCount: 2
Fore
SplineSet
0 125 m 25
 350 -250 l 25
 700 125 l 25
 350 500 l 1053
EndSplineSet
Validated: 3
EndChar

StartChar: V
Encoding: 86 86 21
Width: 1000
Flags: H
LayerCount: 2
Fore
SplineSet
0 125 m 25
 523.6 -64 l 25
 350 500 l 1053
EndSplineSet
Validated: 524291
EndChar

StartChar: W
Encoding: 87 87 22
Width: 1000
Flags: H
LayerCount: 2
Fore
SplineSet
0 125 m 25
 350 -250 l 25
 350 124 l 25
 700 125 l 25
 350 500 l 1053
EndSplineSet
Validated: 3
EndChar

StartChar: X
Encoding: 88 88 23
Width: 1000
Flags: H
LayerCount: 2
Fore
SplineSet
350 500 m 25
 350 -250 l 1053
-6 121 m 25
 700 125 l 1049
EndSplineSet
Validated: 3
EndChar

StartChar: Y
Encoding: 89 89 24
Width: 1000
Flags: H
LayerCount: 2
Fore
SplineSet
-6 127 m 25
 350 119 l 25
 350 500 l 25
 696.266666667 129 l 25
 522.666666667 -65 l 25
 169.866666667 -57 l 1053
EndSplineSet
Validated: 524291
EndChar

StartChar: Z
Encoding: 90 90 25
Width: 1000
Flags: H
LayerCount: 2
Fore
SplineSet
0 125 m 25
 341.6 491 l 25
 350 -250 l 25
 700 131 l 1053
EndSplineSet
Validated: 524291
EndChar

StartChar: a
Encoding: 97 97 26
Width: 1000
Flags: H
LayerCount: 2
Fore
SplineSet
0 81 m 1
 0 500 l 1
 118.666666667 500 237.333333333 500 356 500 c 1
 356 381 356 262 356 143 c 1
 319 122 l 1
 298 158 l 1
 298 401 l 1
 0 81 l 1
58 222 m 1
 263 442 l 1
 58 442 l 1
 58 222 l 1
EndSplineSet
Validated: 524289
EndChar

StartChar: z
Encoding: 122 122 27
Width: 1000
Flags: H
LayerCount: 2
Fore
SplineSet
1 124 m 1
 298 443 l 1
 56 443 l 1
 34 480 l 1
 71 501 l 1
 424 501 l 1
 127 182 l 1
 369 182 l 1
 390 145 l 1
 353 124 l 1
 1 124 l 1
EndSplineSet
Validated: 1
EndChar

StartChar: e
Encoding: 101 101 28
Width: 1000
Flags: H
LayerCount: 2
Fore
SplineSet
58 442 m 1
 58 222 l 1
 263 442 l 1
 58 442 l 1
93 181 m 1
 335 181 l 1
 356 144 l 1
 319 123 l 1
 21 123 l 1
 0 160 l 1
 0 479 l 1
 37 500 l 1
 335 500 l 1
 356 463 l 1
 93 181 l 1
EndSplineSet
Validated: 1
EndChar

StartChar: r
Encoding: 114 114 29
Width: 1000
Flags: H
LayerCount: 2
Fore
SplineSet
57.7529296875 144.346679688 m 1
 20.947265625 123.096679688 l 1
 -0.302734375 159.90234375 l 1
 -0.302734375 381.752929688 l 1
 155.247070312 478.65234375 l 1
 192.052734375 499.90234375 l 1
 213.302734375 463.096679688 l 1
 57.7529296875 366.197265625 l 1
 57.7529296875 144.346679688 l 1
EndSplineSet
Validated: 524289
EndChar

StartChar: g
Encoding: 103 103 30
Width: 1000
Flags: H
LayerCount: 2
Fore
SplineSet
297.721679688 441.721679688 m 1
 91.2138671875 441.721679688 l 1
 297.721679688 220.462890625 l 1
 297.721679688 441.721679688 l 1
355.778320312 144.221679688 m 1
 355.778320312 -174.528320312 l 1
 318.971679688 -195.778320312 l 1
 21.4716796875 122.971679688 l 1
 0.2216796875 159.778320312 l 1
 37.0283203125 181.028320312 l 1
 297.721679688 -98.287109375 l 1
 297.721679688 145.740234375 l 1
 21.4716796875 441.721679688 l 1
 37.0283203125 499.778320312 l 1
 334.528320312 499.778320312 l 1
 355.778320312 462.971679688 l 1
 355.778320312 144.221679688 l 1
EndSplineSet
Validated: 524289
EndChar

StartChar: m
Encoding: 109 109 31
Width: 1000
Flags: H
LayerCount: 2
Fore
SplineSet
175.169921875 349.118164062 m 1
 296.721679688 479.353515625 l 1
 354.778320312 463.796875 l 1
 354.778320312 141.646484375 l 1
 317.971679688 120.396484375 l 1
 296.721679688 157.203125 l 1
 296.721679688 401.59375 l 1
 204.837890625 303.146484375 l 1
 168.032226562 281.896484375 l 1
 57.2783203125 402.475585938 l 1
 57.2783203125 145.046875 l 1
 20.4716796875 123.796875 l 1
 -0.7783203125 160.603515625 l 1
 -0.7783203125 479.353515625 l 1
 36.0283203125 500.603515625 l 1
 175.169921875 349.118164062 l 1
EndSplineSet
Validated: 524289
EndChar

StartChar: y
Encoding: 121 121 32
Width: 1000
Flags: H
LayerCount: 2
Fore
SplineSet
352.778320312 463.4921875 m 1
 352.778320312 -234.692382812 l 1
 18.4716796875 123.4921875 l 1
 -2.7783203125 160.298828125 l 1
 34.0283203125 181.548828125 l 1
 294.721679688 -97.7666015625 l 1
 294.721679688 146.260742188 l 1
 18.4716796875 442.2421875 l 1
 -2.7783203125 479.048828125 l 1
 34.0283203125 500.298828125 l 1
 294.721679688 220.983398438 l 1
 294.721679688 479.048828125 l 1
 352.778320312 463.4921875 l 1
EndSplineSet
Validated: 524289
EndChar
